<svg width="60" height="60" viewBox="0 0 60 60" fill="none" xmlns="http://www.w3.org/2000/svg">
<path fill-rule="evenodd" clip-rule="evenodd" d="M26.9827 0.24599C20.3956 0.883953 14.3478 3.61064 9.6672 8.05225C7.02141 10.5631 6.72369 10.9978 7.12921 11.7575C7.65377 12.7398 8.46401 12.3726 10.8469 10.0731C18.5627 2.62648 29.5618 0.433168 40.0717 4.24566C43.2471 5.39742 46.4306 7.43895 49.1513 10.0683C51.536 12.3729 52.346 12.7406 52.8708 11.7575C53.2707 11.0082 52.992 10.5918 50.4746 8.1807C45.6118 3.52322 39.797 0.926859 32.6749 0.23285C31.2037 0.0893826 29.8194 -0.0146649 29.5988 0.00169307C29.3781 0.0180511 28.2008 0.127998 26.9827 0.24599ZM27.5925 6.55696C23.6724 7.13513 19.8745 8.48801 17.2285 10.2488C15.5901 11.3391 15.2849 11.8049 15.6995 12.5813C16.1133 13.3565 16.7815 13.2184 18.873 11.9256C19.9168 11.2807 21.9444 10.3488 23.379 9.85511C25.8841 8.99297 26.147 8.9573 30 8.9573C33.853 8.9573 34.1159 8.99297 36.621 9.85511C38.0556 10.3488 40.0832 11.2807 41.127 11.9256C42.1705 12.5705 43.2493 13.0983 43.5245 13.0983C44.1135 13.0983 44.644 12.2407 44.4188 11.6523C43.9726 10.4869 38.754 7.88947 35.256 7.09195C33.2594 6.63661 29.0461 6.34243 27.5925 6.55696ZM9.02468 15.4359C6.5648 16.3069 4.714 19.1033 4.72765 21.9284C4.73433 23.336 5.51301 25.2424 6.50702 26.2853L7.19074 27.0026L5.79843 27.7097C3.2591 28.9999 0.842822 31.6724 0.16499 33.9411C-0.276108 35.4165 0.184517 37.1341 1.34009 38.3239C2.80061 39.8278 3.28237 39.9147 10.165 39.9147H16.4281L16.7293 41.1145C17.0993 42.5875 18.4036 44.1268 19.8328 44.7779C20.8027 45.2195 21.774 45.2662 30 45.2662C38.226 45.2662 39.1973 45.2195 40.1672 44.7779C41.5964 44.1268 42.9007 42.5875 43.2707 41.1145L43.5719 39.9147H49.835C56.7176 39.9147 57.1994 39.8278 58.6599 38.3239C59.8155 37.1341 60.2761 35.4165 59.835 33.9411C59.1572 31.6724 56.7409 28.9999 54.2016 27.7097L52.8093 27.0026L53.493 26.2853C55.9031 23.757 55.8055 19.5122 53.279 16.9797C50.2825 13.9755 44.8842 14.523 42.8419 18.0384C41.2829 20.7211 41.3814 23.5513 43.1131 25.8254L44.0138 27.0085L42.4904 27.8698C41.6529 28.3437 40.2876 29.4381 39.4567 30.3024L37.9465 31.8733L36.3279 31.1058L34.7095 30.3386L35.6136 29.4598C37.0078 28.1053 37.7426 26.1922 37.7271 23.9589C37.7054 20.9193 36.3995 18.6673 33.8316 17.2412C32.5506 16.5297 32.1654 16.4503 30 16.4503C27.8346 16.4503 27.4494 16.5297 26.1684 17.2412C23.6005 18.6673 22.2946 20.9193 22.2729 23.9589C22.2574 26.1882 22.9919 28.105 24.3786 29.4523L25.2752 30.3235L23.6253 31.1637L21.9752 32.0039L20.9959 30.7682C20.0123 29.5271 17.0198 27.311 16.3273 27.311C15.8019 27.311 15.8458 27.193 16.8722 25.8449C18.6194 23.5503 18.7227 20.7308 17.1581 18.0384C15.6786 15.4917 12.1003 14.3469 9.02468 15.4359ZM13.8193 17.9923C15.2009 18.9349 15.7655 19.8882 15.8779 21.4674C15.9573 22.583 15.8477 23.1156 15.3648 23.9589C14.6736 25.1659 12.8755 26.2383 11.5429 26.2383C10.3474 26.2383 8.43084 25.1726 7.73321 24.1204C6.46369 22.2051 7.20919 19.143 9.23145 17.9676C10.5871 17.1795 12.6441 17.1905 13.8193 17.9923ZM50.7298 17.9569C52.7817 19.1129 53.5484 22.1872 52.2668 24.1204C51.5692 25.1726 49.6526 26.2383 48.4571 26.2383C47.1245 26.2383 45.3264 25.1659 44.6352 23.9589C44.1523 23.1156 44.0427 22.583 44.1221 21.4674C44.3578 18.1553 47.8186 16.3165 50.7298 17.9569ZM32.8518 19.3259C35.1188 20.5956 36.1141 23.6699 35.0696 26.1761C34.1932 28.2791 32.3737 29.4563 30 29.4563C26.1122 29.4563 23.5627 25.8726 24.8299 22.1888C25.9475 18.9405 29.744 17.5855 32.8518 19.3259ZM15.841 29.5877C17.3975 30.3512 19.969 32.6196 19.969 33.2294C19.969 33.4013 19.6113 33.9505 19.1742 34.4495C18.7369 34.9488 18.1051 35.8386 17.7699 36.4272L17.1603 37.4972L10.4729 37.4905C3.45812 37.4838 3.26766 37.4535 2.62541 36.2451C2.13375 35.3194 2.256 34.4801 3.06998 33.1961C5.03553 30.0945 8.01408 28.6009 11.9658 28.7347C13.8548 28.7988 14.5407 28.9497 15.841 29.5877ZM52.6156 29.4976C54.4327 30.3345 55.9301 31.6182 56.93 33.1961C57.744 34.4801 57.8662 35.3194 57.3746 36.2451C56.7323 37.4535 56.5419 37.4838 49.5271 37.4905L42.8397 37.4972L42.2301 36.4272C41.8949 35.8386 41.2631 34.9488 40.8258 34.4495C40.3887 33.9505 40.031 33.4487 40.031 33.3345C40.031 32.862 41.4694 31.2895 42.6471 30.4745C44.686 29.0637 46.2447 28.625 48.8584 28.7264C50.5965 28.7937 51.4814 28.9755 52.6156 29.4976ZM32.0062 32.1519C34.4829 32.5477 36.8414 33.7324 38.5368 35.4321C41.0946 37.9963 41.743 40.1815 40.4152 41.7634C40.0377 42.2129 39.2855 42.7041 38.7433 42.8551C38.1752 43.0133 34.4709 43.1297 30 43.1297C25.5291 43.1297 21.8248 43.0133 21.2567 42.8551C19.954 42.4926 18.899 41.2225 18.899 40.0174C18.899 36.929 23.4528 32.884 27.7263 32.176C29.7657 31.8384 30.0361 31.8368 32.0062 32.1519ZM4.1199 43.1541C3.16467 43.7119 3.81281 45.3627 6.2323 48.537C10.8375 54.5776 17.6664 58.5824 25.432 59.7961C28.2241 60.2324 34.8457 59.9307 37.4262 59.2496C45.2723 57.1786 51.8607 52.309 55.6356 45.7907C56.4868 44.3214 56.5389 43.522 55.8097 43.1308C55.0327 42.7138 54.7173 42.9924 52.9256 45.6802C47.8649 53.2719 39.2032 57.8817 30 57.8817C20.7971 57.8817 12.1402 53.2744 7.07277 45.6802C5.12274 42.7575 4.99139 42.6451 4.1199 43.1541ZM11.6721 43.4054C11.1772 43.9015 11.1649 44.009 11.5236 44.7046C11.7389 45.1216 12.8648 46.3565 14.0258 47.4488C21.5405 54.5178 32.7242 55.7924 41.7968 50.6139C43.99 49.3621 47.8229 45.9712 48.4764 44.7046C48.8351 44.009 48.8228 43.9015 48.3279 43.4054C48.0313 43.108 47.6966 42.8645 47.5843 42.8645C47.4719 42.8645 46.2976 43.9205 44.9749 45.2109C43.6521 46.5016 41.877 47.965 41.0307 48.463C36.6748 51.0261 30.9911 52.0159 26.078 51.0666C21.4771 50.1773 18.4985 48.5995 15.0251 45.2109C13.7024 43.9205 12.5281 42.8645 12.4157 42.8645C12.3034 42.8645 11.9687 43.108 11.6721 43.4054Z" fill="#00A700"/>
</svg>
