<svg width="55" height="60" viewBox="0 0 55 60" fill="none" xmlns="http://www.w3.org/2000/svg">
<path fill-rule="evenodd" clip-rule="evenodd" d="M41.3496 0.397677C41.0135 0.762028 40.9512 1.64978 40.8962 6.84131L40.8326 12.8622L37.3819 14.705L33.9314 16.5478L33.1307 14.9761C32.1089 12.9708 31.7993 12.6394 30.6678 12.3404C29.8673 12.1291 29.5696 12.1734 28.4647 12.6698C27.073 13.295 26.4818 13.9777 26.2816 15.1898C26.1812 15.798 26.348 16.3401 27.0257 17.6086C27.5062 18.5078 28.0467 19.357 28.2269 19.4955C28.5006 19.7062 28.4592 19.9757 27.9753 21.1304C27.2499 22.8625 27.2227 23.6963 27.8806 24.0419C28.5637 24.4004 29.163 23.835 29.5024 22.5119C29.6469 21.9488 30.0061 21.2238 30.3007 20.9006C30.8555 20.2919 41.8532 14.3283 42.0553 14.5265C42.3195 14.7858 41.4174 16.3067 40.6794 16.8469C40.24 17.1683 38.3275 18.3518 36.4294 19.4766C31.6805 22.2912 31.6284 22.3307 31.7153 23.0547C31.7619 23.444 31.9697 23.7079 32.2934 23.7885C32.7966 23.9142 32.7954 23.9242 32.0554 26.0118L31.3121 28.1087L29.5269 28.8563C28.5451 29.2673 27.669 29.6111 27.5802 29.6202C27.4912 29.6293 27.6214 28.9401 27.8697 28.0886C28.3526 26.431 28.215 25.6631 27.436 25.6698C26.6684 25.6766 26.4651 26.0269 25.7418 28.5895C25.1668 30.6266 24.9721 31.9191 24.7964 34.8667L24.5751 38.5781L22.6086 42.6325L20.6419 46.6866L18.8365 46.6875C15.8625 46.6889 14.7701 47.7053 14.7701 50.4702L14.7703 51.9416L10.6548 51.861C6.00232 51.77 4.96172 51.9468 3.92898 53.0038C3.26872 53.6798 3.22136 53.8559 3.14377 55.9271L3.06141 58.1309H1.82279C0.14907 58.1309 -0.476432 58.7849 0.387084 59.6325C0.722685 59.9615 3.4977 59.9994 27.3727 59.9994C56.1822 59.9994 54.6625 60.0673 54.4773 58.786C54.4068 58.2984 54.259 58.2411 52.9119 58.1781L51.4243 58.1087V46.4967C51.4243 35.6965 51.3938 34.829 50.9894 34.0889C50.2499 32.7359 49.3557 32.4395 46.0133 32.4395H43.0938L43.094 24.9073C43.094 17.8232 43.1238 17.2986 43.5931 16.0904C44.1905 14.5529 44.1351 12.435 43.4884 12.0798C43.2599 11.9544 43.0938 11.573 43.0938 11.174V10.4851H48.515C54.4873 10.4851 54.989 10.3802 55 9.12878C55.004 8.65069 54.6522 8.18731 53.5331 7.19679L52.0607 5.89377L53.208 4.86121C54.9719 3.27348 54.9945 3.24592 54.9945 2.68047C54.9945 2.38829 54.7986 1.97536 54.5592 1.76282C54.181 1.42697 53.4096 1.37605 48.6683 1.37488L43.2128 1.37325L42.8074 0.67421C42.3433 -0.12596 41.9085 -0.208406 41.3496 0.397677ZM50.9142 4.37914C50.2785 5.00321 49.7582 5.70272 49.7582 5.93371C49.7582 6.16469 50.3206 6.86233 51.0078 7.48383L52.2573 8.61378L47.6755 8.61519L43.0938 8.61659V5.93067V3.24475H47.582H52.0702L50.9142 4.37914ZM31.2935 15.6425C32.0987 17.1522 32.0225 17.5675 30.8386 18.1215C29.8311 18.593 29.6729 18.4837 28.7113 16.651C28.0358 15.3634 28.0743 14.889 28.8862 14.4957C29.9658 13.9728 30.5516 14.2519 31.2935 15.6425ZM40.9431 25.7247L40.9345 32.3227L39.9315 32.7899C39.3798 33.0468 38.7143 33.5945 38.4525 34.0069C37.866 34.9311 37.718 34.9514 37.5371 34.1328C37.459 33.7797 36.4865 32.4395 35.3759 31.1549C34.2651 29.8704 33.359 28.6092 33.3621 28.3523C33.3652 28.0953 33.8155 26.6316 34.3629 25.0993L35.3583 22.3136L37.9765 20.7308C39.4165 19.8601 40.6751 19.1431 40.7731 19.1372C40.8712 19.1314 40.9478 22.0959 40.9431 25.7247ZM30.1303 34.3552C29.7907 36.1919 29.4172 37.9762 29.3001 38.3203C29.1471 38.7706 24.537 45.0605 23.1827 46.6672C23.1375 46.7207 23.0444 46.7092 22.9758 46.642C22.9073 46.5747 23.6668 44.8492 24.6641 42.8079L26.4768 39.0959L26.6931 35.6117C26.8122 33.6954 26.9692 32.0663 27.0423 31.9916C27.1156 31.9168 27.9453 31.5352 28.8867 31.1437C30.1013 30.6385 30.6197 30.5166 30.6728 30.7238C30.7139 30.8843 30.4697 32.5185 30.1303 34.3552ZM34.9025 33.5146C35.817 34.5929 35.8612 34.9496 35.4666 38.0662C34.9665 42.0154 34.6997 42.0941 34.3184 38.4051C34.1666 36.9334 33.9795 35.5692 33.9031 35.3737C33.8264 35.178 33.394 34.7938 32.9417 34.5194C32.2589 34.1053 32.1404 33.9163 32.2432 33.4053C32.3112 33.0669 32.44 32.3744 32.5295 31.8668L32.6923 30.9436L33.3909 31.7501C33.7753 32.1933 34.4555 32.9874 34.9025 33.5146ZM48.9911 34.6716L49.5202 35.035V46.5831V58.1309H44.6409H39.7616V55.2196C39.7616 52.6287 39.7133 52.2831 39.3224 52.0778C39.0061 51.9117 38.7393 51.9458 38.3704 52.1995C37.8939 52.5269 37.8575 52.75 37.8575 55.3415V58.1309H33.0972H28.3369V50.8205C28.3369 45.4461 28.4126 43.4359 28.6225 43.2299C29.0243 42.8357 37.1701 42.8357 37.5718 43.2299C37.7601 43.4146 37.8575 44.4045 37.8575 46.1328C37.8575 48.2054 37.9358 48.8323 38.2314 49.1223C38.4373 49.3241 38.7372 49.4893 38.8978 49.4893C39.7033 49.4893 39.7616 48.9899 39.7616 42.0855C39.7616 35.5535 39.7832 35.221 40.2376 34.7751C40.6746 34.3463 41.0309 34.308 44.5878 34.308C47.7091 34.308 48.565 34.3787 48.9911 34.6716ZM37.8089 39.7891C37.7515 41.0197 37.6763 41.2619 37.4028 41.0952C37.1141 40.9193 37.1141 40.4884 37.4028 38.008C37.7263 35.2298 37.7411 35.1824 37.8089 36.702C37.8475 37.5692 37.8475 38.9584 37.8089 39.7891ZM32.3722 38.398C32.5069 39.5528 32.618 40.6288 32.6192 40.7892C32.6204 40.9875 32.2018 41.0812 31.3121 41.0812C30.0796 41.0812 29.6683 40.8446 30.2679 40.4809C30.7039 40.2165 31.3728 38.4803 31.552 37.1473C31.645 36.4558 31.8107 35.9884 31.9235 36.0991C32.0354 36.2089 32.2375 37.2436 32.3722 38.398ZM26.1947 46.4997C26.1947 46.8769 26.1243 46.9444 25.9298 46.7536C25.7842 46.6107 25.737 46.3794 25.8249 46.2398C26.0712 45.8488 26.1947 45.9357 26.1947 46.4997ZM25.7344 48.7968C26.1652 49.0231 26.1947 49.329 26.1947 53.5847V58.1309H21.4345H16.6742V53.7099C16.6742 50.0024 16.7346 49.2298 17.0481 48.9219C17.358 48.6181 18.0965 48.555 21.3481 48.555C23.5992 48.555 25.4705 48.6583 25.7344 48.7968ZM14.5237 54.3786C14.6591 54.6271 14.7701 55.573 14.7701 56.4806V58.1309H9.89076H5.01147V56.4806C5.01147 53.8061 4.78059 53.9269 9.89076 53.9269C13.9839 53.9269 14.2938 53.957 14.5237 54.3786Z" fill="#00A700"/>
</svg>
