<svg width="60" height="60" viewBox="0 0 60 60" fill="none" xmlns="http://www.w3.org/2000/svg">
<path fill-rule="evenodd" clip-rule="evenodd" d="M0.0606917 11.0311L0.121383 22.0623L5.08176 22.1253L10.0421 22.1883V20.6661V19.144H10.8626C11.3344 19.144 12.2028 19.4335 12.9051 19.825C14.2693 20.5854 16.3207 21.2451 17.3209 21.2451H17.9787V27.6654V34.0856H38.9893H60L59.9395 21.07L59.8793 8.05447L50.5561 7.99331L41.233 7.93237L38.0677 4.81658C33.1556 -0.0184432 33.0037 -0.0653698 22.6473 0.0424901L15.5277 0.116732L14.0104 0.908404C12.1663 1.87074 11.3043 2.13385 10.5872 1.95385C10.1329 1.83992 10.0421 1.66576 10.0421 0.908638V0H5.02107H0L0.0606917 11.0311ZM7.94127 11.0967V20.0923L5.08176 20.0267L2.22225 19.9611L2.16109 11.0311L2.09993 2.10117H5.0206H7.94127V11.0967ZM32.4514 2.85105C33.2917 3.26568 34.4997 4.25346 35.9481 5.71097L38.161 7.93774H34.0882H30.0151L28.8295 6.76669L27.6439 5.59564L26.9667 6.30257L26.2895 7.00949L30.0706 10.8166C33.3249 14.0928 33.8519 14.7243 33.8519 15.3472C33.8519 16.3982 33.647 16.7827 32.8729 17.1829C31.6792 17.8004 31.1087 17.4577 27.7884 14.1301L24.6658 11.0005L24.0159 11.5475C22.2358 13.0454 19.7668 13.2079 17.7579 11.9589L16.6057 11.2426L15.9911 12.0486L15.3765 12.8545L15.919 13.3062C16.2173 13.5546 16.803 13.9242 17.2201 14.1273L17.9787 14.4967V16.8203C17.9787 19.1344 17.9764 19.144 17.4033 19.144C16.5315 19.144 14.7215 18.4802 13.523 17.7212C12.6976 17.1983 12.1761 17.0428 11.2471 17.0428H10.0421V10.6553V4.2677L11.294 4.13837C11.9824 4.06739 13.1087 3.72397 13.7966 3.37541C16.3209 2.09603 16.1832 2.11237 23.9312 2.167L31.1675 2.2179L32.4514 2.85105ZM57.8392 21.07L57.8998 31.9844H38.9897H20.0796V23.4957V15.007L21.3826 14.8725C22.0995 14.7985 23.0915 14.537 23.5876 14.2917L24.4896 13.8455L25.346 14.7226L26.2025 15.6L25.2788 16.2112C24.7325 16.5726 23.8628 16.881 23.1511 16.9653L21.947 17.1079V21.0177V24.9275L23.0558 25.091C25.4949 25.4505 26.5888 26.4929 26.8241 28.6821L26.9658 30L38.8987 30.0605L50.8316 30.1209L50.9915 28.9151C51.0795 28.2518 51.3062 27.41 51.4952 27.0441C51.9833 26.1005 53.3727 25.2819 54.8022 25.0961L56.0277 24.9367V20.9897V17.0428L55.3858 17.0414C52.8029 17.0363 50.8988 15.1319 50.8937 12.5486L50.8923 11.9066H42.4417H33.9908L33.2212 11.1605C32.7978 10.75 32.4514 10.3289 32.4514 10.2245C32.4514 10.1202 38.1498 10.062 45.1149 10.0952L57.7785 10.1556L57.8392 21.07ZM49.319 15.2423C50.0706 17.0708 51.2483 18.1564 53.2849 18.8986C53.9161 19.1286 53.9269 19.1654 53.9269 21.1041V23.0757L53.2518 23.224C51.9719 23.5053 50.481 24.6665 49.7394 25.9599C49.3489 26.6412 49.0284 27.3822 49.027 27.607C49.0251 27.9896 48.3923 28.0156 39.0243 28.0156H29.0239L28.7352 27.0523C28.3271 25.6903 26.5874 23.9052 25.1807 23.4056L24.0479 23.0033V20.986V18.9689L24.7024 18.8379C25.0624 18.766 25.8946 18.3453 26.5514 17.9031L27.7459 17.0993L28.5129 17.8907C29.6946 19.1101 31.0982 19.6998 32.3953 19.5219C32.9873 19.4409 33.6974 19.2266 33.9733 19.0457L34.4752 18.7167L34.1367 19.7451C33.0613 23.012 35.865 26.3624 39.4566 26.1026C41.3221 25.9676 42.6013 25.0961 43.4809 23.3612C44.4678 21.4146 44.2811 19.5402 42.9379 17.9115C41.4503 16.108 38.7512 15.5047 36.7479 16.528L35.8361 16.994L35.9152 15.6175L35.9944 14.2412L42.4512 14.2422L48.9081 14.2429L49.319 15.2423ZM40.9949 19.0039C41.6868 19.6959 41.7885 19.948 41.7885 20.9704C41.7885 24.282 37.5632 25.066 36.264 21.9953C35.8237 20.9545 36.1951 19.6079 37.1424 18.8108C37.7017 18.3399 38.1097 18.2101 39.0287 18.2101C40.0509 18.2101 40.303 18.3119 40.9949 19.0039ZM49.9586 41.4397C49.9586 42.2743 49.8981 42.9572 49.8243 42.9572C49.7504 42.9572 48.9385 42.5108 48.0202 41.965L46.3502 40.9728L42.7272 40.9807L39.1041 40.9884L32.9182 42.6927C27.4004 44.2128 25.226 45.0007 25.2099 45.4861C25.2071 45.5718 25.0169 45.886 24.7874 46.1844L24.3703 46.7267L19.1321 43.857C13.9673 41.0276 13.8725 40.9872 12.3764 40.98C11.153 40.9742 10.7111 41.0783 10.0951 41.5177C8.32946 42.7774 7.88128 45.5349 9.16817 47.2223C9.59955 47.788 12.5837 49.6924 19.4573 53.7887C24.7823 56.9622 29.5174 59.6629 29.98 59.7908C30.488 59.9309 33.9434 59.9932 38.6977 59.9479L46.5738 59.873L48.0281 59.2361C48.8281 58.8859 49.5895 58.5992 49.7205 58.5992C49.8514 58.5992 49.9586 58.9144 49.9586 59.2996V60H54.9773H59.996V49.9611V39.9222H54.9773H49.9586V41.4397ZM57.8952 49.9611V57.8988H54.9773H52.0594V49.9611V42.0233H54.9773H57.8952V49.9611ZM18.5404 45.9829C23.831 48.829 24.1959 49.0679 24.6929 50.0101C25.445 51.4363 26.6056 52.165 28.1037 52.1514C28.8129 52.1451 31.5193 51.5388 34.7516 50.6622L40.2031 49.1834L40.0705 48.3668C39.9977 47.9176 39.8529 47.4649 39.7491 47.361C39.6452 47.2571 37.0128 47.8459 33.8993 48.6693C29.1138 49.9349 28.1304 50.1287 27.5388 49.9226C26.7277 49.6396 26.3822 49.1057 26.3822 48.1347C26.3822 46.7718 26.7811 46.5808 33.3851 44.7815C39.5544 43.1005 39.5791 43.0961 42.6144 43.0849L45.6581 43.0739L47.7499 44.2844L49.8419 45.4949L49.9044 50.838L49.967 56.1812L47.9203 56.9816L45.8736 57.7821H38.0537H30.2338L20.8966 52.217C15.7612 49.1561 11.323 46.3926 11.0342 46.0756C10.7352 45.7473 10.509 45.1987 10.509 44.8013C10.509 43.9146 11.4315 42.9572 12.2854 42.9572C12.6488 42.9572 15.2992 44.2391 18.5404 45.9829Z" fill="#00A700"/>
</svg>
