<svg width="62" height="60" viewBox="0 0 62 60" fill="none" xmlns="http://www.w3.org/2000/svg">
<path fill-rule="evenodd" clip-rule="evenodd" d="M12.6208 0.116779C10.3601 0.702712 8.22926 2.62226 7.52334 4.70853C6.94879 6.40719 7.14643 8.78987 7.97742 10.1821L8.60254 11.2293L7.58769 12.063C7.02959 12.5216 6.30069 13.421 5.96805 14.0618C5.40681 15.1432 5.35818 15.5087 5.29238 19.146C5.22779 22.7219 5.26407 23.1313 5.70509 23.8251C6.65123 25.3131 6.90791 25.3537 14.6251 25.2357C18.4457 25.177 21.7621 25.1326 21.9951 25.1366C22.5413 25.1459 36.5561 25.1461 37.1149 25.1366C37.3479 25.1328 40.6953 25.1749 44.5539 25.2302C51.291 25.3269 51.6012 25.3117 52.3702 24.8459C53.7018 24.0393 53.9202 23.152 53.8278 18.9272C53.7492 15.3335 53.7259 15.1902 53.0241 13.9462C52.6267 13.2415 51.9024 12.3501 51.4142 11.9651L50.5268 11.2649L51.1597 10.0674C53.5929 5.46333 50.1325 0.0179754 44.7958 0.0526516C39.6253 0.0863778 36.2781 5.38163 38.5647 9.91067L39.2583 11.2849L38.1973 12.1558L37.1362 13.0265L36.2513 12.2269C35.7645 11.7868 35.3267 11.407 35.278 11.3825C35.2294 11.3578 35.5004 10.7165 35.8802 9.95746C37.6517 6.41503 36.0631 2.17811 32.3494 0.541681C30.8195 -0.132605 28.2482 -0.137118 26.7606 0.531706C23.023 2.21232 21.4534 6.40553 23.2318 9.96103L23.9239 11.345L23.4035 11.7029C23.1171 11.8998 22.6775 12.2774 22.4264 12.542C21.9699 13.023 21.9692 13.0227 20.9082 12.152L19.8464 11.2806L20.5276 9.95461C21.4372 8.18399 21.4815 5.83384 20.6384 4.06417C19.9891 2.70111 18.2744 1.04971 16.9405 0.502492C15.846 0.0536014 13.6284 -0.144481 12.6208 0.116779ZM15.9588 2.84124C17.6662 3.54165 19.0171 5.91745 18.6571 7.58737C18.0937 10.2028 15.7991 11.7013 13.1148 11.207C12.1142 11.0227 10.713 9.90402 10.1547 8.84402C9.66431 7.91299 9.65875 5.92481 10.144 5.00874C11.2498 2.92104 13.8188 1.96341 15.9588 2.84124ZM31.3079 2.88565C32.5074 3.37777 33.0468 3.88414 33.5754 5.0142C34.3246 6.61572 34.0273 8.70484 32.8722 9.95913C31.2726 11.6958 27.8067 11.7003 26.2579 9.96768C24.6482 8.16736 24.7401 5.17879 26.4519 3.65898C27.6811 2.56787 29.7355 2.24058 31.3079 2.88565ZM46.6828 2.90441C48.5 3.806 49.3059 5.03748 49.3059 6.91427C49.3059 10.2933 45.9575 12.3052 42.8176 10.8127C38.6562 8.835 40.2069 2.57143 44.8684 2.52963C45.4403 2.52464 46.2567 2.69327 46.6828 2.90441ZM12.1369 13.5576C13.4181 14.0108 14.7049 14.0044 16.4039 13.5362C17.7344 13.1698 17.837 13.1731 18.5964 13.6084C19.0345 13.8597 19.6381 14.4226 19.9381 14.8594C20.4427 15.5947 20.4831 15.9146 20.4831 19.1811V22.7086H14.1932H7.90339V19.3203C7.90339 15.5064 8.14314 14.7167 9.59657 13.7426C10.5277 13.1187 10.8333 13.0966 12.1369 13.5576ZM28.2927 13.7118C29.5219 13.9844 29.8939 13.9709 31.3597 13.6001C33.2174 13.1303 33.8212 13.274 34.9435 14.454C35.7662 15.3187 35.9658 16.3391 35.9658 19.6787V22.7086H29.555H23.1442V19.5177C23.1442 17.7627 23.2601 16.0258 23.4016 15.6581C23.705 14.8698 24.7575 13.7196 25.4424 13.4279C25.9548 13.2097 26.0912 13.2234 28.2927 13.7118ZM43.5204 13.7091C44.8938 14.0139 45.3162 13.9744 48.0058 13.2907C48.7635 13.098 50.3002 14.1362 50.806 15.1824C51.12 15.8322 51.2066 16.735 51.2066 19.3599V22.7086H44.9214H38.6361L38.4784 22.0913C38.3915 21.7519 38.3734 20.2121 38.4382 18.6697C38.5306 16.4661 38.6569 15.6954 39.0278 15.072C39.6161 14.083 41.0059 13.1379 41.6509 13.2885C41.917 13.3505 42.7584 13.5398 43.5204 13.7091ZM54.8354 26.8837C54.3648 27.0818 52.318 28.875 50.2281 30.92L46.4677 34.5997L45.8735 33.9755C44.5672 32.6027 44.4189 32.5778 36.5706 32.411C30.3166 32.278 29.0455 32.188 27.3777 31.7598C22.3463 30.4673 18.2042 31.6311 14.2095 35.4592L12.1691 37.4144L11.1303 36.4741C10.5589 35.957 9.89849 35.5317 9.66262 35.5288C9.27265 35.5241 1.14374 43.4675 0.25082 44.7258C0.0437383 45.0177 -0.0537544 45.4536 0.029949 45.7127C0.274286 46.4684 14.9272 59.9969 15.5047 60C16.1104 60.0031 24.751 51.3851 24.9859 50.5434C25.094 50.1555 24.9765 49.8261 24.5831 49.4152C24.2776 49.0958 24.0736 48.8164 24.1302 48.7946C24.1866 48.7725 29.0228 48.6839 34.8772 48.5975C44.9013 48.4497 45.6147 48.4105 47.1201 47.9258C47.9993 47.6429 49.1169 47.1004 49.6039 46.7204C50.5421 45.9887 60.638 34.4828 61.3928 33.2855C62.3827 31.7151 62.1437 29.6258 60.8112 28.2024C59.4514 26.75 56.6314 26.1277 54.8354 26.8837ZM58.7247 29.8155C60.0893 31.1556 60.2763 30.8518 52.6581 39.674C48.9943 43.9171 48.2455 44.6636 47.094 45.2213L45.7635 45.8656L34.7562 46.0343C28.7022 46.1271 23.2891 46.2718 22.7269 46.3556L21.7048 46.5081L17.949 42.9946C15.8833 41.0623 14.1932 39.3843 14.1932 39.2658C14.1932 39.1472 14.9241 38.3074 15.8172 37.3989C16.9927 36.2036 17.9408 35.5048 19.2508 34.8688C20.8673 34.084 21.2943 33.9821 23.2514 33.9149C24.9058 33.8582 25.9461 33.9662 27.4987 34.356C29.2991 34.8082 30.4211 34.8875 36.5152 34.9942L43.4757 35.1158L43.9542 35.7131C44.498 36.3919 44.5931 38.0409 44.1228 38.6423C43.4742 39.4717 42.8198 39.5717 38.0436 39.5717H33.3159L32.9196 40.1654C32.5526 40.7155 32.5526 40.8029 32.9196 41.353L33.3159 41.9468H38.5391C43.4807 41.9468 43.8136 41.9185 44.7143 41.4214C45.7773 40.835 46.578 39.7204 46.9728 38.277C47.1896 37.4844 47.9821 36.5952 51.481 33.2183L55.7259 29.1213H56.8718C57.8156 29.1213 58.1421 29.2436 58.7247 29.8155ZM21.2459 49.7026L21.8877 50.3783L18.6765 53.6844L15.4655 56.9903L9.28547 51.2022L3.10545 45.4139L6.38101 42.018L9.65657 38.6219L15.1302 43.8243C18.1409 46.6855 20.8929 49.3309 21.2459 49.7026ZM28.0418 39.846C27.633 40.2474 27.661 41.3487 28.089 41.6974C28.5873 42.1035 29.6866 41.9104 30.0628 41.3508C30.3207 40.967 30.3248 40.7575 30.0846 40.2821C29.7468 39.6132 28.5409 39.356 28.0418 39.846Z" fill="#00A700"/>
</svg>
