<svg width="20" height="19" viewBox="0 0 20 19" fill="none" xmlns="http://www.w3.org/2000/svg">
<path fill-rule="evenodd" clip-rule="evenodd" d="M5.03421 0.109162C4.73575 0.262843 4.58523 0.582106 4.58523 1.06163V1.47189H3.97834C2.24358 1.47189 0.822478 2.40654 0.20413 3.95421C0.029462 4.39123 0.0293063 4.39788 0.00570042 9.89883C-0.0109717 13.7876 0.00834925 15.554 0.0712981 15.91C0.325976 17.3502 1.57062 18.5781 3.08396 18.8825C3.86366 19.0392 16.1359 19.0392 16.9156 18.8825C18.4289 18.5781 19.6736 17.3502 19.9282 15.91C19.9912 15.5543 20.0107 13.7843 19.9946 9.89883L19.9719 4.39175L19.785 3.94823C19.1176 2.3647 17.7606 1.47189 16.0212 1.47189H15.4143V1.06163C15.4143 0.573161 15.2614 0.258703 14.9494 0.105614C14.6624 -0.0352047 14.5301 -0.0352047 14.2431 0.105614C13.9312 0.258703 13.7783 0.573161 13.7783 1.06163V1.47189H9.99977H6.22128V1.06163C6.22128 0.573161 6.06835 0.258703 5.75641 0.105614C5.474 -0.0329131 5.30868 -0.0321 5.03421 0.109162ZM4.59801 3.88051L4.62419 4.73688L4.87863 4.95236C5.22236 5.24361 5.58416 5.24361 5.92788 4.95236L6.18233 4.73688L6.2085 3.88051L6.23468 3.02422H9.99977H13.7649L13.791 3.88051L13.8172 4.73688L14.0717 4.95236C14.4154 5.24361 14.7772 5.24361 15.1209 4.95236L15.3754 4.73688L15.4015 3.88051L15.4277 3.02422H16.068C16.8482 3.02422 17.3512 3.22846 17.8227 3.73674C18.2142 4.15875 18.3748 4.61115 18.3748 5.29195V5.8332H9.99977H1.62476V5.28811C1.62476 4.44608 1.89993 3.87504 2.5228 3.42428C2.92067 3.13628 3.30561 3.03109 3.97475 3.02747L4.57183 3.02422L4.59801 3.88051ZM18.3577 11.6175C18.336 15.8942 18.3347 15.9254 18.1643 16.2276C17.9006 16.6952 17.647 16.9449 17.1932 17.1834L16.7777 17.4018H9.99977H3.22186L2.80638 17.1834C2.35257 16.9449 2.09891 16.6952 1.83527 16.2276C1.66489 15.9254 1.66356 15.8942 1.64183 11.6175L1.61993 7.31161H9.99977H18.3796L18.3577 11.6175ZM4.2232 9.59768C3.88555 9.79305 3.75934 10.1668 3.91305 10.5159C4.09216 10.9227 4.3526 11.0077 5.41884 11.0073C6.1877 11.0071 6.37826 10.9839 6.58331 10.8653C6.92096 10.6699 7.04717 10.2962 6.89346 9.94702C6.71435 9.54024 6.45391 9.45523 5.38767 9.4556C4.61881 9.45582 4.42825 9.47903 4.2232 9.59768ZM8.81971 9.59768C8.48206 9.79305 8.35585 10.1668 8.50957 10.5159C8.68867 10.9227 8.94912 11.0077 10.0154 11.0073C10.7842 11.0071 10.9748 10.9839 11.1798 10.8653C11.5175 10.6699 11.6437 10.2962 11.49 9.94702C11.3109 9.54024 11.0504 9.45523 9.98419 9.4556C9.21533 9.45582 9.02477 9.47903 8.81971 9.59768ZM13.4162 9.59768C13.0786 9.79305 12.9524 10.1668 13.1061 10.5159C13.2852 10.9227 13.5456 11.0077 14.6119 11.0073C15.3807 11.0071 15.5713 10.9839 15.7763 10.8653C16.114 10.6699 16.2402 10.2962 16.0865 9.94702C15.9074 9.54024 15.6469 9.45523 14.5807 9.4556C13.8118 9.45582 13.6213 9.47903 13.4162 9.59768ZM4.2232 13.959C3.88555 14.1544 3.75934 14.5281 3.91305 14.8772C4.09216 15.284 4.3526 15.369 5.41884 15.3687C6.1877 15.3684 6.37826 15.3452 6.58331 15.2266C6.92096 15.0312 7.04717 14.6575 6.89346 14.3083C6.71435 13.9016 6.45391 13.8165 5.38767 13.8169C4.61881 13.8171 4.42825 13.8403 4.2232 13.959ZM8.81971 13.959C8.48206 14.1544 8.35585 14.5281 8.50957 14.8772C8.68867 15.284 8.94912 15.369 10.0154 15.3687C10.7842 15.3684 10.9748 15.3452 11.1798 15.2266C11.5175 15.0312 11.6437 14.6575 11.49 14.3083C11.3109 13.9016 11.0504 13.8165 9.98419 13.8169C9.21533 13.8171 9.02477 13.8403 8.81971 13.959ZM13.4162 13.959C13.0786 14.1544 12.9524 14.5281 13.1061 14.8772C13.2852 15.284 13.5456 15.369 14.6119 15.3687C15.3807 15.3684 15.5713 15.3452 15.7763 15.2266C16.114 15.0312 16.2402 14.6575 16.0865 14.3083C15.9074 13.9016 15.6469 13.8165 14.5807 13.8169C13.8118 13.8171 13.6213 13.8403 13.4162 13.959Z" fill="#00A700"/>
</svg>
