<svg width="19" height="16" viewBox="0 0 19 16" fill="none" xmlns="http://www.w3.org/2000/svg">
<path fill-rule="evenodd" clip-rule="evenodd" d="M16.8758 0.66554C16.62 0.791542 15.4135 2.06528 11.6899 6.14019L6.83728 11.4506L4.65271 9.05552C3.27571 7.54593 2.35673 6.60112 2.16687 6.49994C0.90299 5.82644 -0.489043 7.40208 0.168676 8.76173C0.225714 8.87979 1.58315 10.4063 3.18512 12.1539C5.64762 14.8404 6.14356 15.3451 6.39408 15.4192C6.81624 15.544 7.09188 15.5262 7.43115 15.3521C7.63374 15.2481 9.48838 13.2667 13.2962 9.08619C18.3927 3.49065 18.8722 2.94145 18.9522 2.60766C19.203 1.56005 18.4339 0.494021 17.4314 0.500025C17.3092 0.500755 17.0592 0.575237 16.8758 0.66554Z" fill="white"/>
</svg>
