<svg width="19" height="19" viewBox="0 0 19 19" fill="none" xmlns="http://www.w3.org/2000/svg">
<path fill-rule="evenodd" clip-rule="evenodd" d="M8.36977 0.0435122C4.26397 0.561537 1.03003 3.57756 0.133218 7.72495C-0.0444061 8.54661 -0.0444061 10.4667 0.133218 11.2883C0.981003 15.2092 3.79343 18.0197 7.71707 18.8669C8.5393 19.0444 10.4607 19.0444 11.2829 18.8669C15.2066 18.0197 18.019 15.2092 18.8668 11.2883C19.0444 10.4667 19.0444 8.54661 18.8668 7.72495C18.0206 3.81141 15.1499 0.94163 11.2957 0.156278C10.5793 0.0102542 9.08866 -0.047131 8.36977 0.0435122ZM15.0353 5.40505C15.1703 5.49688 15.3508 5.66636 15.4363 5.78165C15.5888 5.98744 15.5917 6.05603 15.5917 9.50664C15.5917 12.9572 15.5888 13.0258 15.4363 13.2316C15.3508 13.3469 15.1703 13.5163 15.0353 13.6082L14.7897 13.7753H9.5H4.21034L3.96474 13.6082C3.82968 13.5164 3.64923 13.3469 3.56373 13.2316C3.41121 13.0258 3.40832 12.9572 3.40832 9.50664C3.40832 6.05603 3.41121 5.98744 3.56373 5.78165C3.64923 5.66636 3.82968 5.49688 3.96474 5.40505L4.21034 5.23802H9.5H14.7897L15.0353 5.40505ZM5.30268 6.15974C5.30268 6.23391 9.40484 9.4324 9.5 9.4324C9.59516 9.4324 13.6973 6.23391 13.6973 6.15974C13.6973 6.14274 11.8085 6.12886 9.5 6.12886C7.19147 6.12886 5.30268 6.14274 5.30268 6.15974ZM4.33693 9.66833C4.33693 11.9322 4.35966 12.729 4.42607 12.7953C4.56588 12.935 14.4643 12.923 14.5805 12.783C14.641 12.7102 14.6593 11.8308 14.6453 9.66788L14.6259 6.65423L12.1518 8.61862C10.474 9.9508 9.62057 10.5831 9.50015 10.5831C9.37995 10.5831 8.54717 9.96817 6.92262 8.67994C5.60266 7.6332 4.4809 6.74384 4.42979 6.7036C4.3558 6.64525 4.33693 7.24835 4.33693 9.66833Z" fill="#00A700"/>
</svg>
