<svg width="25" height="25" viewBox="0 0 25 25" fill="none" xmlns="http://www.w3.org/2000/svg">
<path fill-rule="evenodd" clip-rule="evenodd" d="M11.0129 0.0572529C5.61049 0.738865 1.35531 4.70732 0.175287 10.1644C-0.0584291 11.2455 -0.0584291 13.7719 0.175287 14.8531C1.29079 20.0121 4.99135 23.7101 10.154 24.8248C11.2359 25.0584 13.7641 25.0584 14.846 24.8248C20.0086 23.7101 23.7092 20.0121 24.8247 14.8531C25.0584 13.7719 25.0584 11.2455 24.8247 10.1644C23.7113 5.01501 19.9341 1.23899 14.8628 0.205629C13.9202 0.0134923 11.9588 -0.0620145 11.0129 0.0572529ZM19.7832 7.11191C19.9609 7.23274 20.1984 7.45574 20.3109 7.60744C20.5116 7.87821 20.5154 7.96846 20.5154 12.5087C20.5154 17.049 20.5116 17.1393 20.3109 17.41C20.1984 17.5617 19.9609 17.7846 19.7832 17.9056L19.4601 18.1253H12.5H5.53992L5.21676 17.9056C5.03906 17.7847 4.80162 17.5617 4.68912 17.41C4.48844 17.1393 4.48463 17.049 4.48463 12.5087C4.48463 7.96846 4.48844 7.87821 4.68912 7.60744C4.80162 7.45574 5.03906 7.23274 5.21676 7.11191L5.53992 6.89213H12.5H19.4601L19.7832 7.11191ZM6.97721 8.10493C6.97721 8.20251 12.3748 12.4111 12.5 12.4111C12.6252 12.4111 18.0228 8.20251 18.0228 8.10493C18.0228 8.08256 15.5375 8.06429 12.5 8.06429C9.46247 8.06429 6.97721 8.08256 6.97721 8.10493ZM5.70648 12.7215C5.70648 15.7002 5.73639 16.7486 5.82378 16.836C6.00774 17.0198 19.0319 17.004 19.1849 16.8198C19.2645 16.7239 19.2885 15.5668 19.2702 12.7209L19.2446 8.75557L15.9892 11.3403C13.7816 13.0932 12.6586 13.9251 12.5002 13.9251C12.342 13.9251 11.2463 13.116 9.10871 11.421C7.37192 10.0437 5.89592 8.87347 5.82867 8.82053C5.73131 8.74375 5.70648 9.5373 5.70648 12.7215Z" fill="white"/>
</svg>
