<svg width="15" height="15" viewBox="0 0 15 15" fill="none" xmlns="http://www.w3.org/2000/svg">
<path fill-rule="evenodd" clip-rule="evenodd" d="M7.00742 0.0661342C6.91316 0.10551 6.78759 0.17146 6.72837 0.212656C6.66916 0.253852 5.18457 1.72486 3.42925 3.48156C0.853643 6.0592 0.223009 6.70522 0.161268 6.82922C-0.121563 7.39742 -0.0276875 8.0208 0.406031 8.45438C0.679492 8.72775 1.00647 8.86211 1.39971 8.86276L1.61266 8.86311V11.23C1.61266 13.8339 1.60808 13.7609 1.7951 14.1314C1.92734 14.3934 2.24653 14.7002 2.52322 14.8312C2.64438 14.8886 2.81357 14.9501 2.89916 14.9678C2.99891 14.9884 3.53817 15 4.40017 15H5.74553L5.84264 14.9339C5.89604 14.8976 5.96739 14.8306 6.00119 14.785C6.06173 14.7033 6.06285 14.6732 6.07733 12.7443C6.09066 10.9647 6.09663 10.778 6.14256 10.6941C6.21805 10.5562 6.36865 10.4174 6.5176 10.3485C6.64249 10.2907 6.6998 10.2872 7.51659 10.2872C8.33457 10.2872 8.39049 10.2907 8.51527 10.3487C8.66956 10.4206 8.8139 10.5602 8.88842 10.7098C8.93709 10.8076 8.94232 10.9654 8.95586 12.7537C8.96981 14.5949 8.97334 14.6963 9.02665 14.7844C9.05749 14.8353 9.13201 14.9047 9.19219 14.9385C9.2989 14.9984 9.33544 15 10.6488 14.9996C12.1369 14.9991 12.2181 14.9913 12.5513 14.8166C12.7829 14.6953 13.1157 14.3626 13.2371 14.1311C13.4219 13.7787 13.4196 13.8154 13.4201 11.2195L13.4205 8.86311L13.6335 8.86276C14.18 8.86188 14.6706 8.55774 14.8973 8.07918C14.9894 7.88488 14.992 7.86864 14.992 7.48305C14.992 6.80784 15.3336 7.2105 11.5614 3.43957C7.80985 -0.310741 8.19167 0.0160701 7.54597 0.0023282C7.21306 -0.00477767 7.16283 0.00118304 7.00742 0.0661342ZM7.70111 0.888095C7.75651 0.912173 9.10496 2.24038 10.9579 4.09601C13.9338 7.07616 14.1214 7.26999 14.1395 7.3843C14.1776 7.62334 14.0401 7.86902 13.8225 7.95107C13.777 7.96818 13.5532 7.98222 13.3251 7.98222C12.8355 7.98222 12.7113 8.02207 12.6035 8.21378L12.5393 8.32788V10.91C12.5393 13.7881 12.5481 13.6599 12.3374 13.8769C12.1154 14.1056 12.1287 14.1034 10.9165 14.1131L9.83704 14.1218V12.4583C9.83704 11.0359 9.83029 10.7687 9.79052 10.6144C9.65716 10.0974 9.26242 9.67301 8.73856 9.48344C8.53433 9.40953 8.51083 9.40774 7.6194 9.39761C6.59479 9.38595 6.43882 9.4038 6.08928 9.57264C5.83377 9.69603 5.51102 10.0087 5.37946 10.2602C5.19661 10.6099 5.19614 10.6157 5.19614 12.4516V14.1191H4.17344C3.04576 14.1191 2.95142 14.1074 2.7535 13.9438C2.69438 13.8949 2.61507 13.7921 2.57727 13.7154L2.50853 13.5759L2.49385 10.928C2.47934 8.311 2.47846 8.27917 2.4186 8.19907C2.27719 8.00976 2.2393 7.99822 1.70607 7.98204C1.19255 7.96648 1.15345 7.95703 1.01975 7.81591C0.878433 7.6668 0.841718 7.4785 0.91885 7.29859C0.968109 7.18372 7.21617 0.936398 7.33322 0.885012C7.44213 0.83718 7.58682 0.838384 7.70111 0.888095Z" fill="#CDCDCD"/>
</svg>
