<svg width="325" height="275" viewBox="0 0 325 275" fill="none" xmlns="http://www.w3.org/2000/svg">
<path fill-rule="evenodd" clip-rule="evenodd" d="M134.684 116.068C133.08 116.326 131.773 116.834 130.495 117.696C127.861 119.473 126.234 122.344 126.017 125.599C125.748 129.637 128.644 135.189 134.223 141.332C135.016 142.205 135.746 142.946 135.845 142.978C135.944 143.009 136.097 143.007 136.186 142.973C136.42 142.882 139.001 140.014 140.174 138.543C143.394 134.504 145.378 130.698 145.88 127.596C146.489 123.833 144.742 119.877 141.506 117.694C140.439 116.975 139.69 116.637 138.444 116.315C137.336 116.028 135.626 115.916 134.684 116.068ZM137.161 121.691C138.764 122.124 140.032 123.456 140.418 125.113C140.625 126.003 140.503 127.195 140.121 128.022C138.793 130.9 135.152 131.608 132.88 129.43C131.082 127.706 131.013 124.814 132.726 122.978C133.282 122.382 134.195 121.822 134.871 121.661C135.484 121.515 136.562 121.529 137.161 121.691Z" fill="#00A700"/>
<circle cx="136" cy="129" r="119.5" stroke="#00A700"/>
</svg>
