<svg width="18" height="24" viewBox="0 0 18 24" fill="none" xmlns="http://www.w3.org/2000/svg">
<path fill-rule="evenodd" clip-rule="evenodd" d="M7.81535 0.0602488C6.37161 0.289909 5.19599 0.741273 4.04515 1.50796C1.67446 3.08713 0.210526 5.63914 0.015447 8.53241C-0.226485 12.1219 2.37959 17.0568 7.4005 22.5172C8.11433 23.2934 8.7712 23.9518 8.86023 23.9801C8.94926 24.0083 9.08767 24.0063 9.16781 23.9756C9.37767 23.8949 11.701 21.3459 12.7562 20.0387C15.6544 16.448 17.44 13.0647 17.892 10.3072C18.4403 6.96233 16.8674 3.4458 13.9553 1.506C12.9952 0.866448 12.321 0.566476 11.1994 0.279892C10.2021 0.0251397 8.66356 -0.0747576 7.81535 0.0602488ZM10.0445 5.05848C11.488 5.44328 12.6291 6.62753 12.9759 8.1008C13.1621 8.89174 13.0528 9.9512 12.7091 10.6865C11.5133 13.2447 8.23702 13.8738 6.19224 11.9377C4.57391 10.4054 4.5119 7.835 6.05383 6.20276C6.55397 5.67331 7.37553 5.17504 7.98405 5.03198C8.53516 4.9025 9.50607 4.91495 10.0445 5.05848Z" fill="#00A700"/>
</svg>
