<svg width="25" height="25" viewBox="0 0 25 25" fill="none" xmlns="http://www.w3.org/2000/svg">
<path fill-rule="evenodd" clip-rule="evenodd" d="M11.0129 0.0573373C10.625 0.106275 9.94955 0.237752 9.51193 0.3494C4.70104 1.57684 1.2471 5.2078 0.175287 10.1645C-0.0584291 11.2456 -0.0584291 13.772 0.175287 14.8531C1.29578 20.0349 4.96858 23.7051 10.154 24.8248C11.2359 25.0584 13.7641 25.0584 14.846 24.8248C17.4695 24.2583 19.5987 23.115 21.3971 21.3072C23.123 19.5722 24.2721 17.4083 24.8247 14.8531C25.0584 13.772 25.0584 11.2456 24.8247 10.1645C23.7051 4.98675 19.9794 1.26378 14.8599 0.207081C13.924 0.0139676 11.9624 -0.0624181 11.0129 0.0573373ZM9.54761 7.36398C10.2843 8.10703 10.8872 8.77858 10.8872 8.85643C10.8872 8.93428 10.5963 9.28241 10.2408 9.63006C8.92045 10.9213 8.77266 11.3488 9.3439 12.2235C9.74369 12.8354 11.8336 14.9393 12.5816 15.4827C13.6786 16.2797 13.9495 16.2373 15.1445 15.0821C15.6467 14.5966 16.1215 14.2182 16.2285 14.2182C16.438 14.2182 19.098 16.8366 19.098 17.0428C19.098 17.2925 17.8941 18.4188 17.3548 18.6738C16.3645 19.142 15.4509 19.0948 13.9174 18.4965C11.1987 17.4359 8.16241 14.6187 6.78123 11.8751C6.16854 10.6581 5.97304 10.0234 5.96825 9.23572C5.96454 8.64251 6.01351 8.39372 6.22406 7.93404C6.53519 7.25507 7.68315 6.01307 7.99966 6.01307C8.13778 6.01307 8.66005 6.46884 9.54761 7.36398Z" fill="white"/>
</svg>
