<svg width="19" height="19" viewBox="0 0 19 19" fill="none" xmlns="http://www.w3.org/2000/svg">
<path fill-rule="evenodd" clip-rule="evenodd" d="M8.36977 0.0435764C8.07499 0.0807689 7.56166 0.180691 7.22906 0.265544C3.57279 1.1984 0.947796 3.95793 0.133218 7.72499C-0.0444061 8.54664 -0.0444061 10.4667 0.133218 11.2884C0.984791 15.2265 3.77612 18.0159 7.71707 18.8669C8.5393 19.0444 10.4607 19.0444 11.2829 18.8669C13.2768 18.4363 14.895 17.5674 16.2618 16.1935C17.5735 14.8749 18.4468 13.2303 18.8668 11.2884C19.0444 10.4667 19.0444 8.54664 18.8668 7.72499C18.0159 3.78993 15.1844 0.960473 11.2936 0.157381C10.5822 0.0106154 9.09141 -0.0474378 8.36977 0.0435764ZM7.25618 5.59663C7.81609 6.16134 8.27423 6.67172 8.27423 6.73089C8.27423 6.79005 8.05322 7.05463 7.78304 7.31884C6.77954 8.30018 6.66722 8.62511 7.10136 9.28983C7.4052 9.75492 8.9935 11.3539 9.56203 11.7669C10.3957 12.3726 10.6016 12.3404 11.5098 11.4624C11.8915 11.0934 12.2523 10.8058 12.3337 10.8058C12.4929 10.8058 14.5145 12.7958 14.5145 12.9525C14.5145 13.1423 13.5995 13.9983 13.1896 14.1921C12.437 14.5479 11.7427 14.5121 10.5772 14.0574C8.51099 13.2513 6.20343 11.1102 5.15373 9.0251C4.68809 8.10018 4.53951 7.61779 4.53587 7.01915C4.53305 6.56831 4.57027 6.37923 4.73029 6.02987C4.96675 5.51385 5.83919 4.56993 6.07974 4.56993C6.18471 4.56993 6.58164 4.91632 7.25618 5.59663Z" fill="#00A700"/>
</svg>
