<svg width="14" height="13" viewBox="0 0 14 13" fill="none" xmlns="http://www.w3.org/2000/svg">
<path d="M6.92696 2.91345C6.09118 2.91345 5.28963 3.23809 4.69864 3.81594C4.10765 4.3938 3.77563 5.17754 3.77563 5.99475C3.77563 6.81196 4.10765 7.5957 4.69864 8.17356C5.28963 8.75141 6.09118 9.07605 6.92696 9.07605C7.76275 9.07605 8.5643 8.75141 9.15529 8.17356C9.74627 7.5957 10.0783 6.81196 10.0783 5.99475C10.0783 5.17754 9.74627 4.3938 9.15529 3.81594C8.5643 3.23809 7.76275 2.91345 6.92696 2.91345ZM6.92696 7.99586C6.38399 7.99586 5.86326 7.78496 5.47932 7.40955C5.09538 7.03415 4.87969 6.52499 4.87969 5.99408C4.87969 5.46318 5.09538 4.95402 5.47932 4.57861C5.86326 4.20321 6.38399 3.99231 6.92696 3.99231C7.46993 3.99231 7.99066 4.20321 8.3746 4.57861C8.75854 4.95402 8.97423 5.46318 8.97423 5.99408C8.97423 6.52499 8.75854 7.03415 8.3746 7.40955C7.99066 7.78496 7.46993 7.99586 6.92696 7.99586Z" fill="black"/>
<path d="M10.2032 3.51851C10.6089 3.51851 10.9379 3.1969 10.9379 2.80016C10.9379 2.40343 10.6089 2.08182 10.2032 2.08182C9.79743 2.08182 9.46851 2.40343 9.46851 2.80016C9.46851 3.1969 9.79743 3.51851 10.2032 3.51851Z" fill="black"/>
<path d="M12.7431 2.06975C12.5853 1.67138 12.3442 1.30961 12.0352 1.00759C11.7262 0.705576 11.3561 0.469972 10.9486 0.31586C10.4718 0.140842 9.96805 0.0462069 9.45883 0.0359839C8.80253 0.00799638 8.59467 0 6.93041 0C5.26615 0 5.05284 -6.70254e-08 4.40199 0.0359839C3.89316 0.0456842 3.38977 0.140339 2.91356 0.31586C2.50597 0.469792 2.13579 0.705333 1.82677 1.00737C1.51775 1.30941 1.27672 1.67127 1.11913 2.06975C0.940099 2.53595 0.843535 3.02855 0.833575 3.52643C0.80427 4.16748 0.79541 4.37072 0.79541 5.99867C0.79541 7.62594 0.79541 7.83319 0.833575 8.4709C0.843798 8.96935 0.939891 9.46113 1.11913 9.92825C1.27716 10.3266 1.51843 10.6883 1.82752 10.9903C2.13662 11.2923 2.50674 11.5279 2.91424 11.6821C3.38955 11.8642 3.89315 11.9656 4.40335 11.982C5.05965 12.01 5.26751 12.0187 6.93177 12.0187C8.59603 12.0187 8.80935 12.0187 9.4602 11.982C9.96936 11.9719 10.4731 11.8775 10.95 11.7028C11.3574 11.5483 11.7273 11.3125 12.0363 11.0104C12.3453 10.7083 12.5864 10.3466 12.7444 9.94825C12.9237 9.48179 13.0198 8.99 13.03 8.49156C13.0593 7.85051 13.0681 7.64727 13.0681 6.01932C13.0681 4.39138 13.0681 4.18481 13.03 3.54709C13.022 3.04216 12.925 2.54237 12.7431 2.06975V2.06975ZM11.913 8.42159C11.9086 8.80562 11.8369 9.18608 11.701 9.54642C11.5987 9.80555 11.442 10.0409 11.241 10.2372C11.0401 10.4336 10.7993 10.5867 10.5343 10.6866C10.1698 10.8188 9.78484 10.8889 9.39613 10.8938C8.74869 10.9231 8.56605 10.9305 6.90588 10.9305C5.24434 10.9305 5.07464 10.9305 4.41494 10.8938C4.02642 10.8892 3.64164 10.8191 3.27749 10.6866C3.01148 10.5873 2.76976 10.4345 2.56796 10.2381C2.36615 10.0417 2.20876 9.80605 2.10596 9.54642C1.97201 9.18995 1.90036 8.81398 1.89401 8.43425C1.86471 7.8012 1.85789 7.62261 1.85789 5.99933C1.85789 4.37539 1.85789 4.20946 1.89401 3.56375C1.89842 3.17993 1.97011 2.7997 2.10596 2.43958C2.31383 1.91382 2.73977 1.5 3.27749 1.29876C3.64182 1.16691 4.02649 1.09682 4.41494 1.09151C5.06306 1.06286 5.24502 1.05486 6.90588 1.05486C8.56673 1.05486 8.73711 1.05486 9.39613 1.09151C9.78488 1.09609 10.1699 1.1662 10.5343 1.29876C10.7993 1.39889 11.04 1.55211 11.241 1.74858C11.4419 1.94504 11.5986 2.18041 11.701 2.43958C11.835 2.79606 11.9066 3.17203 11.913 3.55175C11.9423 4.18547 11.9498 4.36339 11.9498 5.98734C11.9498 7.61062 11.9498 7.78521 11.9205 8.42226H11.913V8.42159Z" fill="black"/>
</svg>
