<svg width="14" height="9" viewBox="0 0 14 9" fill="none" xmlns="http://www.w3.org/2000/svg">
<path d="M13.7296 1.415C13.6539 1.14357 13.506 0.896024 13.3007 0.697014C13.0953 0.498004 12.8396 0.354468 12.5591 0.280692C11.5188 0.00450089 7.35692 4.87928e-06 7.35692 4.87928e-06C7.35692 4.87928e-06 3.19573 -0.00449139 2.15476 0.259496C1.87438 0.336667 1.61922 0.482233 1.41378 0.68222C1.20834 0.882207 1.05952 1.1299 0.981605 1.40152C0.707248 2.40737 0.704591 4.49358 0.704591 4.49358C0.704591 4.49358 0.701934 6.59006 0.974298 7.58564C1.12709 8.13609 1.57549 8.57094 2.14546 8.71931C3.19639 8.9955 7.34695 9 7.34695 9C7.34695 9 11.5088 9.00449 12.5491 8.74115C12.8298 8.6675 13.0857 8.52429 13.2916 8.32569C13.4974 8.12709 13.6461 7.87996 13.7229 7.60876C13.998 6.60355 13.9999 4.51798 13.9999 4.51798C13.9999 4.51798 14.0132 2.42086 13.7296 1.415ZM6.02566 6.42628L6.02898 2.57244L9.488 4.50257L6.02566 6.42628Z" fill="black"/>
</svg>
